<svg xmlns:xlink="http://www.w3.org/1999/xlink" version="1.1" xmlns="http://www.w3.org/2000/svg" width="600" height="600"><desc>Created with Highcharts 3.0.7</desc><defs><clipPath id="highcharts-6"><rect fill="none" x="0" y="0" width="580" height="575"></rect></clipPath></defs><rect rx="0" ry="0" fill="rgb(0,0,0)" x="0" y="0" width="600" height="600" fill-opacity="0"></rect><path fill="rgb(0,0,0)" d="M 300 297.5 A 0 0 0 1 1 300 297.5 M 299.755625040729 53.12512218748989 A 244.375 244.375 0 1 0 300 53.125 " fill-opacity="0.6"></path><g class="highcharts-grid" ><path fill="none" d="M 300 297.5 L 472.7992196524625 124.70078034753749" stroke="#C0C0C0" stroke-width="1" stroke-dasharray="1,3"  opacity="1"></path><path fill="none" d="M 300 297.5 L 544.375 297.5" stroke="#C0C0C0" stroke-width="1" stroke-dasharray="1,3"  opacity="1"></path><path fill="none" d="M 300 297.5 L 472.7992196524625 470.2992196524625" stroke="#C0C0C0" stroke-width="1" stroke-dasharray="1,3"  opacity="1"></path><path fill="none" d="M 300 297.5 L 300 541.875" stroke="#C0C0C0" stroke-width="1" stroke-dasharray="1,3"  opacity="1"></path><path fill="none" d="M 300 297.5 L 127.20078034753749 470.29921965246257" stroke="#C0C0C0" stroke-width="1" stroke-dasharray="1,3"  opacity="1"></path><path fill="none" d="M 300 297.5 L 55.625 297.50000000000006" stroke="#C0C0C0" stroke-width="1" stroke-dasharray="1,3"  opacity="1"></path><path fill="none" d="M 300 297.5 L 127.20078034753743 124.70078034753749" stroke="#C0C0C0" stroke-width="1" stroke-dasharray="1,3"  opacity="1"></path><path fill="none" d="M 300 297.5 L 299.99999999999994 53.125" stroke="#C0C0C0" stroke-width="1" stroke-dasharray="1,3"  opacity="1"></path><path fill="none" d="M 300 297.5 L 300 53.125" stroke="#C0C0C0" stroke-width="1" stroke-dasharray="1,3"  opacity="1"></path></g><g class="highcharts-grid" ><path fill="none" d="M 300 53.125 A 244.375 244.375 0 1 1 299.755625040729 53.12512218748989 M 300 297.5 A 0 0 0 1 0 300 297.5 " stroke-opacity="0.1" stroke="rgb(255,255,255)" stroke-width="1"  opacity="1"></path><path fill="none" stroke-opacity="0.1" stroke="rgb(255,255,255)" stroke-width="1" ></path></g><g class="highcharts-axis" ><path fill="none" d="M 300 53.125 A 244.375 244.375 0 1 1 299.755625040729 53.12512218748989 M 300 297.5 A 0 0 0 1 0 300 297.5 " stroke="#999" stroke-width="1"  visibility="visible"></path></g><g class="highcharts-axis" ></g><g class="highcharts-series-group" ><g class="highcharts-series" visibility="visible"  transform="translate(10,10) scale(1 1)" clip-path="url(#highcharts-6)"><path fill="rgb(0,187,255)" d="M 290 43.125 L 412.3418475139435 165.15815248605654 L 415.60875 287.5 L 378.47320046206084 375.97320046206084 L 290 466.87125000000003 L 245.41780132966468 332.08219867033534 L 157.06 287.5 L 117.20078034753743 114.70078034753749 L 290 43.125 L 290 287.5" fill-opacity="0.3" ></path><path fill="none" d="M 290 43.125 L 412.3418475139435 165.15815248605654 L 415.60875 287.5 L 378.47320046206084 375.97320046206084 L 290 466.87125000000003 L 245.41780132966468 332.08219867033534 L 157.06 287.5 L 117.20078034753743 114.70078034753749 L 290 43.125" stroke="#00BBFF" stroke-width="1"  stroke-linejoin="round" stroke-linecap="round"></path><path fill="none" d="M 285 43.125 L 290 43.125 L 412.3418475139435 165.15815248605654 L 415.60875 287.5 L 378.47320046206084 375.97320046206084 L 290 466.87125000000003 L 245.41780132966468 332.08219867033534 L 157.06 287.5 L 117.20078034753743 114.70078034753749 L 290 43.125 L 295 43.125" stroke-linejoin="round" visibility="visible" stroke-opacity="0.0001" stroke="rgb(192,192,192)" stroke-width="11"  class=" highcharts-tracker" style=""></path></g><g class="highcharts-markers highcharts-tracker" visibility="visible"  transform="translate(10,10) scale(1 1)" style="" clip-path="none"></g></g><g class="highcharts-legend"  transform="translate(479,558)"><rect rx="5" ry="5" fill="#000" x="0.5" y="0.5" width="110" height="26" stroke="#909090" stroke-width="1" visibility="visible"></rect><g ><g><g class="highcharts-legend-item"  transform="translate(8,3)"><text x="21" y="15" style="font-family:'lucida grande', 'lucida sans unicode', verdana, arial, helvetica, sans-serif;font-size:12px;cursor:pointer;color:#ccc;fill:#ccc;" text-anchor="start" ><tspan x="21">Kevin Durant</tspan></text><rect rx="2" ry="2" fill="#00BBFF" x="0" y="4" width="16" height="12" ></rect></g></g></g></g><g class="highcharts-axis-labels" ><text x="300" y="42.725" style="font-family:'lucida grande', 'lucida sans unicode', verdana, arial, helvetica, sans-serif;font-size:11px;color:#fff;cursor:default;line-height:14px;font-weight:normal;fill:#fff;" text-anchor="middle" opacity="1"><tspan x="300">FT% *</tspan></text><text x="483.40582137026075" y="118.69417862973927" style="font-family:'lucida grande', 'lucida sans unicode', verdana, arial, helvetica, sans-serif;font-size:11px;color:#fff;cursor:default;line-height:14px;font-weight:normal;fill:#fff;" text-anchor="start" opacity="1"><tspan x="483.40582137026075">3PTM</tspan></text><text x="559.375" y="302.1" style="font-family:'lucida grande', 'lucida sans unicode', verdana, arial, helvetica, sans-serif;font-size:11px;color:#fff;cursor:default;line-height:14px;font-weight:normal;fill:#fff;" text-anchor="start" opacity="1"><tspan x="559.375">AST</tspan></text><text x="483.40582137026075" y="485.5058213702608" style="font-family:'lucida grande', 'lucida sans unicode', verdana, arial, helvetica, sans-serif;font-size:11px;color:#fff;cursor:default;line-height:14px;font-weight:normal;fill:#fff;" text-anchor="start" opacity="1"><tspan x="483.40582137026075">ST</tspan></text><text x="300" y="561.475" style="font-family:'lucida grande', 'lucida sans unicode', verdana, arial, helvetica, sans-serif;font-size:11px;color:#fff;cursor:default;line-height:14px;font-weight:normal;fill:#fff;" text-anchor="middle" opacity="1"><tspan x="300">FG% *</tspan></text><text x="116.59417862973928" y="485.50582137026083" style="font-family:'lucida grande', 'lucida sans unicode', verdana, arial, helvetica, sans-serif;font-size:11px;color:#fff;cursor:default;line-height:14px;font-weight:normal;fill:#fff;" text-anchor="end" opacity="1"><tspan x="116.59417862973928">BLK</tspan></text><text x="40.625" y="302.1000000000001" style="font-family:'lucida grande', 'lucida sans unicode', verdana, arial, helvetica, sans-serif;font-size:11px;color:#fff;cursor:default;line-height:14px;font-weight:normal;fill:#fff;" text-anchor="end" opacity="1"><tspan x="40.625">REB</tspan></text><text x="116.59417862973922" y="118.69417862973927" style="font-family:'lucida grande', 'lucida sans unicode', verdana, arial, helvetica, sans-serif;font-size:11px;color:#fff;cursor:default;line-height:14px;font-weight:normal;fill:#fff;" text-anchor="end" opacity="1"><tspan x="116.59417862973922">PTS</tspan></text></g><g class="highcharts-axis-labels" ><text x="0" y="-9999" style="font-family:'lucida grande', 'lucida sans unicode', verdana, arial, helvetica, sans-serif;font-size:11px;color:#999;cursor:default;line-height:14px;font-weight:bold;fill:#999;" text-anchor="end"><tspan x="0">0</tspan></text><text x="0" y="-9999" style="font-family:'lucida grande', 'lucida sans unicode', verdana, arial, helvetica, sans-serif;font-size:11px;color:#999;cursor:default;line-height:14px;font-weight:bold;fill:#999;" text-anchor="end"><tspan x="0">5</tspan></text></g><g class="highcharts-tooltip"  style="cursor:default;padding:0;white-space:nowrap;" transform="translate(0,-999)"><rect rx="3" ry="3" fill="#000" x="0.5" y="0.5" width="16" height="16"></rect><text x="8" y="21" style="font-family:'lucida grande', 'lucida sans unicode', verdana, arial, helvetica, sans-serif;font-size:12px;color:#fff;fill:#fff;" ></text></g></svg>